<?xml version="1.0" encoding="UTF-8" ?>
<!DOCTYPE svg PUBLIC "-//W3C//DTD SVG 1.1//EN" "http://www.w3.org/Graphics/SVG/1.1/DTD/svg11.dtd">
<svg width="256pt" height="256pt" viewBox="0 0 256 256" version="1.1" xmlns="http://www.w3.org/2000/svg">
<path fill="#ffffff" d=" M 0.00 0.00 L 256.00 0.00 L 256.00 256.00 L 0.00 256.00 L 0.00 0.00 Z" />
<path fill="#0192e6" d=" M 110.00 4.20 C 112.04 3.12 113.52 5.00 113.57 6.92 C 112.70 8.46 111.48 8.86 109.92 8.11 C 109.49 6.87 108.91 5.30 110.00 4.20 Z" />
<path fill="#0092e6" d=" M 123.45 11.95 C 126.12 8.30 131.27 6.56 135.48 8.48 C 137.92 9.44 138.91 12.16 139.22 14.56 C 139.86 19.49 140.36 24.43 141.02 29.36 C 139.90 29.51 138.78 29.66 137.66 29.82 C 136.89 24.37 136.63 18.83 135.50 13.44 C 133.51 8.35 124.42 10.72 124.46 16.02 C 124.29 21.14 125.51 26.17 125.82 31.26 C 125.01 31.33 123.39 31.47 122.57 31.54 C 121.62 24.27 120.89 16.97 119.91 9.70 C 120.80 9.52 121.69 9.33 122.58 9.12 C 122.80 9.83 123.23 11.24 123.45 11.95 Z" />
<path fill="#0092e6" d=" M 111.21 12.52 C 112.00 12.29 113.57 11.85 114.36 11.62 C 116.30 18.84 117.93 26.14 119.76 33.38 C 118.65 33.59 117.53 33.81 116.42 34.02 C 114.74 26.84 112.88 19.70 111.21 12.52 Z" />
<path fill="#0092e6" d=" M 96.36 16.45 C 100.44 14.37 105.78 15.78 108.32 19.57 C 111.36 23.80 113.01 30.12 109.61 34.62 C 106.42 38.45 100.25 40.11 95.95 37.14 C 91.62 34.01 89.62 28.29 90.36 23.08 C 91.06 20.04 93.48 17.56 96.36 16.45 Z" />
<path fill="#0092e6" d=" M 67.39 26.26 C 69.72 20.63 75.72 17.53 81.43 16.44 C 81.48 17.30 81.59 19.01 81.64 19.86 C 77.32 20.47 72.60 22.55 70.81 26.81 C 69.09 30.92 70.65 35.55 73.10 39.01 C 75.12 41.96 78.23 44.63 81.97 44.76 C 86.63 44.69 90.33 41.38 93.44 38.26 C 93.95 39.15 94.47 40.04 94.99 40.93 C 91.54 44.57 87.09 47.78 81.96 48.25 C 77.20 48.41 72.94 45.34 70.39 41.52 C 67.22 37.24 65.22 31.42 67.39 26.26 Z" />
<path fill="#ffffff" d=" M 96.36 19.54 C 98.51 18.40 101.47 17.77 103.51 19.48 C 106.88 22.15 108.42 26.79 107.94 30.99 C 106.96 35.87 99.49 37.57 96.63 33.39 C 93.75 29.56 91.46 22.74 96.36 19.54 Z" />
<path fill="#0092e6" d=" M 55.48 31.89 C 56.36 31.01 57.25 30.13 58.14 29.25 C 62.27 39.07 66.54 48.84 70.35 58.79 C 69.48 59.44 68.61 60.10 67.75 60.76 C 58.47 55.86 49.23 50.90 39.92 46.08 C 40.82 45.23 41.73 44.39 42.64 43.54 C 50.42 47.95 58.60 51.67 66.15 56.47 C 62.26 48.42 59.06 40.07 55.48 31.89 Z" />
<path fill="#a3d8f6" d=" M 130.20 39.71 C 135.73 38.77 141.36 38.51 146.96 38.49 C 146.25 40.39 145.53 42.28 144.81 44.17 C 138.13 44.43 131.44 45.09 124.91 46.55 C 126.56 44.18 128.35 41.92 130.20 39.71 Z" />
<path fill="#90d0f4" d=" M 146.96 38.49 C 153.41 38.71 159.85 39.25 166.19 40.47 C 165.08 42.16 163.96 43.85 162.85 45.54 C 156.88 44.62 150.85 44.01 144.81 44.17 C 145.53 42.28 146.25 40.39 146.96 38.49 Z" />
<path fill="#b2def7" d=" M 65.24 75.65 C 81.64 56.42 105.10 43.10 130.20 39.71 C 128.35 41.92 126.56 44.18 124.91 46.55 C 104.32 50.81 85.56 62.14 71.50 77.67 C 69.47 76.84 67.37 76.18 65.24 75.65 Z" />
<path fill="#79c6f2" d=" M 166.19 40.47 C 172.30 41.98 178.49 43.30 184.31 45.74 C 183.08 47.25 181.86 48.76 180.63 50.27 C 174.84 48.24 168.91 46.56 162.85 45.54 C 163.96 43.85 165.08 42.16 166.19 40.47 Z" />
<path fill="#ffffff" d=" M 124.91 46.55 C 131.44 45.09 138.13 44.43 144.81 44.17 C 150.85 44.01 156.88 44.62 162.85 45.54 C 168.91 46.56 174.84 48.24 180.63 50.27 C 183.64 51.35 186.54 52.70 189.43 54.05 C 194.76 56.52 199.75 59.67 204.59 63.00 C 210.73 67.46 216.53 72.49 221.46 78.28 C 227.03 84.68 231.79 91.75 235.68 99.29 C 240.02 107.98 243.00 117.30 244.76 126.85 C 246.78 138.03 246.86 149.58 244.90 160.78 C 243.29 170.42 240.27 179.85 235.89 188.59 C 225.41 210.13 206.77 227.48 184.61 236.54 C 165.02 244.70 142.80 246.56 122.21 241.23 C 111.61 238.68 101.47 234.32 92.30 228.42 C 86.48 224.64 81.02 220.34 75.98 215.58 C 72.36 211.78 68.86 207.85 65.74 203.62 C 60.29 196.32 56.00 188.19 52.72 179.70 C 50.82 174.63 49.24 169.44 48.23 164.12 C 47.12 158.42 46.33 152.66 46.22 146.85 C 46.12 140.74 46.38 134.60 47.43 128.57 C 48.46 122.92 49.68 117.30 51.60 111.89 C 53.90 105.37 56.61 98.97 60.33 93.12 C 63.55 87.63 67.25 82.41 71.50 77.67 C 85.56 62.14 104.32 50.81 124.91 46.55 Z" />
<path fill="#64bdf0" d=" M 184.31 45.74 C 187.87 47.21 191.32 48.93 194.80 50.57 C 192.83 51.43 191.04 52.62 189.43 54.05 C 186.54 52.70 183.64 51.35 180.63 50.27 C 181.86 48.76 183.08 47.25 184.31 45.74 Z" />
<path fill="#90d0f4" d=" M 131.37 48.40 C 138.60 47.36 145.93 46.76 153.21 47.39 C 150.93 57.49 144.14 65.82 136.77 72.77 C 124.52 86.24 107.57 95.05 89.87 98.83 C 80.02 100.55 69.80 102.49 59.92 99.84 C 63.09 93.92 66.67 88.20 70.96 83.01 C 75.64 83.05 80.33 83.35 85.00 82.98 C 99.78 81.11 113.73 73.75 123.77 62.78 C 127.50 58.74 130.23 53.79 131.37 48.40 Z" />
<path fill="#79c6f2" d=" M 153.21 47.39 C 160.67 48.04 168.12 49.23 175.26 51.56 C 169.24 64.56 159.43 75.33 149.29 85.26 C 141.12 92.73 132.05 99.13 122.67 104.99 C 118.78 105.02 114.90 104.98 111.01 105.01 C 111.01 107.21 111.00 109.41 110.98 111.61 C 103.34 114.74 95.22 116.36 87.47 119.14 C 82.98 120.12 78.27 119.26 73.69 119.57 C 73.47 119.87 73.03 120.47 72.81 120.77 C 65.88 121.75 58.83 122.20 51.87 121.33 C 53.63 113.86 56.48 106.69 59.92 99.84 C 69.80 102.49 80.02 100.55 89.87 98.83 C 107.57 95.05 124.52 86.24 136.77 72.77 C 144.14 65.82 150.93 57.49 153.21 47.39 Z" />
<path fill="#0092e6" d=" M 27.44 61.68 C 30.76 57.24 34.19 52.90 37.54 48.49 C 38.14 48.95 39.35 49.89 39.95 50.36 C 37.34 53.86 34.61 57.27 31.96 60.74 C 34.50 62.71 37.03 64.68 39.58 66.64 C 42.06 63.34 44.62 60.12 47.07 56.80 C 47.87 57.44 48.67 58.09 49.48 58.73 C 47.02 62.02 44.38 65.17 42.03 68.54 C 44.95 70.67 47.75 72.98 50.68 75.11 C 53.28 71.68 55.95 68.30 58.54 64.85 C 59.40 65.39 60.25 65.93 61.11 66.47 C 57.87 71.00 54.35 75.32 50.97 79.75 C 43.11 73.75 35.34 67.63 27.44 61.68 Z" />
<path fill="#a0d6f6" d=" M 70.96 83.01 C 85.93 64.64 107.84 51.77 131.37 48.40 C 130.23 53.79 127.50 58.74 123.77 62.78 C 113.73 73.75 99.78 81.11 85.00 82.98 C 80.33 83.35 75.64 83.05 70.96 83.01 Z" />
<path fill="#4bb2ed" d=" M 189.43 54.05 C 191.04 52.62 192.83 51.43 194.80 50.57 C 199.26 52.99 203.59 55.63 207.74 58.55 L 207.65 58.71 C 206.61 60.12 205.61 61.57 204.59 63.00 C 199.75 59.67 194.76 56.52 189.43 54.05 Z" />
<path fill="#5ebaef" d=" M 175.26 51.56 C 181.34 53.50 187.19 56.10 192.86 59.01 L 192.75 59.14 C 186.75 66.02 181.72 73.73 175.26 80.22 C 170.56 84.84 165.92 89.51 161.29 94.19 C 157.41 98.18 152.77 101.31 148.61 104.99 C 139.97 105.07 131.32 104.89 122.67 104.99 C 132.05 99.13 141.12 92.73 149.29 85.26 C 159.43 75.33 169.24 64.56 175.26 51.56 Z" />
<path fill="#24a1ea" d=" M 204.59 63.00 C 205.61 61.57 206.61 60.12 207.65 58.71 C 214.35 63.50 220.42 69.16 225.81 75.39 C 224.35 76.35 222.90 77.31 221.46 78.28 C 216.53 72.49 210.73 67.46 204.59 63.00 Z" />
<path fill="#45afed" d=" M 175.26 80.22 C 181.72 73.73 186.75 66.02 192.75 59.14 C 195.85 60.85 198.98 62.54 201.79 64.72 C 193.38 73.36 186.13 83.08 177.25 91.29 C 172.81 96.29 167.25 100.10 162.70 104.98 C 158.00 105.05 153.31 104.93 148.61 104.99 C 152.77 101.31 157.41 98.18 161.29 94.19 C 165.92 89.51 170.56 84.84 175.26 80.22 Z" />
<path fill="#2ea6eb" d=" M 201.79 64.72 C 205.68 67.34 209.24 70.39 212.74 73.50 C 208.59 76.06 206.16 80.39 202.76 83.74 C 198.38 88.04 194.23 92.58 189.36 96.35 C 184.54 100.77 180.18 105.73 174.59 109.24 C 174.12 107.83 173.65 106.42 173.19 105.01 C 169.69 104.98 166.19 104.95 162.70 104.98 C 167.25 100.10 172.81 96.29 177.25 91.29 C 186.13 83.08 193.38 73.36 201.79 64.72 Z" />
<path fill="#0092e6" d=" M 24.90 80.95 C 25.60 77.07 28.20 73.94 31.01 71.33 C 31.47 71.89 32.38 73.02 32.84 73.58 C 30.72 76.07 27.69 78.47 27.70 82.05 C 27.45 84.19 30.44 85.17 31.91 83.90 C 35.00 81.93 37.39 78.85 40.94 77.65 C 44.51 76.98 48.25 80.37 47.72 84.04 C 47.32 87.78 45.18 91.16 42.58 93.79 C 41.88 95.27 39.19 94.01 39.29 92.93 C 41.60 90.36 44.75 87.80 44.77 84.01 C 45.23 81.70 42.16 80.15 40.38 81.43 C 37.21 83.10 34.95 86.20 31.55 87.47 C 27.78 88.79 23.77 84.72 24.90 80.95 Z" />
<path fill="#139ae8" d=" M 202.76 83.74 C 206.16 80.39 208.59 76.06 212.74 73.50 C 215.32 76.01 217.88 78.55 220.17 81.33 C 215.06 86.19 210.48 91.61 204.88 95.93 C 196.25 104.16 187.23 112.02 177.74 119.25 C 176.65 115.93 175.67 112.56 174.59 109.24 C 180.18 105.73 184.54 100.77 189.36 96.35 C 194.23 92.58 198.38 88.04 202.76 83.74 Z" />
<path fill="#a0d6f6" d=" M 65.24 75.65 C 67.37 76.18 69.47 76.84 71.50 77.67 C 67.25 82.41 63.55 87.63 60.33 93.12 C 58.21 92.66 56.08 92.21 53.96 91.75 C 57.10 85.98 61.08 80.72 65.24 75.65 Z" />
<path fill="#008ddf" d=" M 221.46 78.28 C 222.90 77.31 224.35 76.35 225.81 75.39 C 231.36 81.87 236.13 89.03 239.98 96.65 C 238.54 97.53 237.11 98.41 235.68 99.29 C 231.79 91.75 227.03 84.68 221.46 78.28 Z" />
<path fill="#008ee0" d=" M 204.88 95.93 C 210.48 91.61 215.06 86.19 220.17 81.33 C 226.42 88.55 231.23 96.81 235.48 105.33 C 228.95 104.60 222.35 105.18 215.80 105.00 C 213.76 111.11 211.94 117.30 209.88 123.40 C 207.94 123.66 206.08 124.33 204.59 125.61 C 197.99 130.71 191.46 135.91 184.39 140.34 C 182.14 133.33 179.99 126.27 177.74 119.25 C 187.23 112.02 196.25 104.16 204.88 95.93 Z" />
<path fill="#0092e6" d=" M 20.45 90.03 C 27.59 92.01 34.41 95.00 41.50 97.16 C 41.29 97.85 40.88 99.23 40.67 99.92 C 39.94 99.76 38.47 99.44 37.73 99.29 C 41.01 104.32 37.75 113.85 30.91 112.97 C 25.25 111.61 19.86 109.27 14.35 107.37 C 14.65 106.58 15.24 104.99 15.54 104.19 C 20.67 105.99 25.73 108.03 30.97 109.52 C 36.33 110.20 38.57 101.46 34.18 98.79 C 29.63 96.07 24.29 95.06 19.43 93.01 C 19.69 92.27 20.20 90.77 20.45 90.03 Z" />
<path fill="#8ccef4" d=" M 53.96 91.75 C 56.08 92.21 58.21 92.66 60.33 93.12 C 56.61 98.97 53.90 105.37 51.60 111.89 C 50.51 109.70 47.83 110.13 45.83 109.66 C 47.89 103.42 50.77 97.49 53.96 91.75 Z" />
<path fill="#0081cb" d=" M 235.68 99.29 C 237.11 98.41 238.54 97.53 239.98 96.65 C 244.57 105.85 247.83 115.70 249.60 125.83 C 247.98 126.17 246.37 126.51 244.76 126.85 C 243.00 117.30 240.02 107.98 235.68 99.29 Z" />
<path fill="#0082cc" d=" M 234.15 107.91 C 234.35 107.05 234.77 106.34 235.43 105.77 C 238.41 112.87 240.65 120.29 241.96 127.89 C 235.86 129.93 230.12 132.83 224.60 136.10 C 227.77 126.70 231.04 117.33 234.15 107.91 Z" />
<path fill="#71c2f1" d=" M 45.83 109.66 C 47.83 110.13 50.51 109.70 51.60 111.89 C 49.68 117.30 48.46 122.92 47.43 128.57 C 45.08 128.80 42.71 129.25 40.86 130.83 C 41.82 123.63 43.57 116.56 45.83 109.66 Z" />
<path fill="#0092e6" d=" M 3.95 110.45 C 14.35 112.57 24.68 114.98 35.05 117.20 C 34.77 118.30 34.49 119.39 34.22 120.49 C 23.93 118.26 13.68 115.90 3.38 113.75 C 3.52 112.93 3.81 111.28 3.95 110.45 Z" />
<path fill="#5dbaef" d=" M 87.47 119.14 C 95.22 116.36 103.34 114.74 110.98 111.61 C 110.93 116.08 111.03 120.55 111.01 125.02 C 103.47 128.25 95.60 130.83 87.51 132.23 C 87.44 127.87 87.57 123.51 87.47 119.14 Z" />
<path fill="#4cb2ed" d=" M 72.81 120.77 C 73.03 120.47 73.47 119.87 73.69 119.57 C 73.59 127.53 73.75 135.50 73.80 143.46 C 65.96 143.61 58.11 143.45 50.26 143.52 C 50.26 148.03 50.24 152.54 50.32 157.05 L 50.07 157.03 C 48.96 150.40 49.04 143.63 49.44 136.93 C 57.21 136.71 64.96 135.78 72.64 134.59 C 73.10 129.99 73.15 125.37 72.81 120.77 Z" />
<path fill="#0092e6" d=" M 4.67 123.65 C 7.86 117.93 17.56 119.34 19.79 125.22 C 21.28 128.79 20.62 132.73 20.38 136.47 C 24.21 136.66 28.02 137.11 31.83 137.48 C 31.82 138.62 31.80 139.77 31.79 140.91 C 21.85 140.04 11.93 138.96 1.98 138.14 C 2.77 133.30 2.18 128.06 4.67 123.65 Z" />
<path fill="#5ebaef" d=" M 51.87 121.33 C 58.83 122.20 65.88 121.75 72.81 120.77 C 73.15 125.37 73.10 129.99 72.64 134.59 C 64.96 135.78 57.21 136.71 49.44 136.93 C 49.77 131.67 50.77 126.48 51.87 121.33 Z" />
<path fill="#29a4ea" d=" M 130.21 139.99 C 130.27 133.51 130.29 127.02 130.37 120.54 C 139.96 120.59 149.55 120.50 159.13 120.49 C 159.60 121.88 160.06 123.28 160.52 124.67 C 154.91 127.48 150.02 131.49 144.47 134.42 C 141.38 136.06 138.37 137.87 135.58 139.99 C 133.79 140.00 132.00 140.00 130.21 139.99 Z" />
<path fill="#0086d2" d=" M 204.59 125.61 C 206.08 124.33 207.94 123.66 209.88 123.40 C 208.25 128.88 206.37 134.28 204.76 139.77 L 204.58 139.87 C 198.51 142.69 193.45 147.17 187.55 150.29 C 186.45 146.99 185.43 143.66 184.39 140.34 C 191.46 135.91 197.99 130.71 204.59 125.61 Z" />
<path fill="#ffffff" d=" M 8.36 124.51 C 11.24 122.87 15.85 123.61 17.21 126.91 C 18.16 129.85 17.56 133.00 17.49 136.03 C 13.41 135.74 9.34 135.35 5.27 134.93 C 5.77 131.39 5.48 127.13 8.36 124.51 Z" />
<path fill="#4ab2ed" d=" M 87.51 132.23 C 95.60 130.83 103.47 128.25 111.01 125.02 C 111.00 127.36 111.00 129.69 110.99 132.03 C 103.38 135.30 95.46 137.75 87.50 140.00 C 87.49 137.41 87.50 134.82 87.51 132.23 Z" />
<path fill="#129ae8" d=" M 144.47 134.42 C 150.02 131.49 154.91 127.48 160.52 124.67 C 161.09 126.38 161.66 128.09 162.21 129.81 C 156.87 133.01 151.67 136.45 146.55 139.99 C 142.90 140.01 139.24 139.99 135.58 139.99 C 138.37 137.87 141.38 136.06 144.47 134.42 Z" />
<path fill="#0075b8" d=" M 244.76 126.85 C 246.37 126.51 247.98 126.17 249.60 125.83 C 251.48 136.98 251.65 148.42 249.99 159.62 C 248.21 159.62 246.37 159.65 244.90 160.78 C 246.86 149.58 246.78 138.03 244.76 126.85 Z" />
<path fill="#007bc1" d=" M 224.60 136.10 C 230.12 132.83 235.86 129.93 241.96 127.89 C 242.94 133.83 243.38 139.85 243.32 145.86 C 239.34 146.85 235.36 147.92 231.58 149.53 C 227.34 151.22 223.45 153.87 218.91 154.74 L 218.23 154.91 C 220.27 148.61 222.54 142.39 224.60 136.10 Z" />
<path fill="#56b7ee" d=" M 40.86 130.83 C 42.71 129.25 45.08 128.80 47.43 128.57 C 46.38 134.60 46.12 140.74 46.22 146.85 C 44.20 147.17 42.19 147.48 40.17 147.80 C 39.81 142.13 40.45 136.47 40.86 130.83 Z" />
<path fill="#0192e6" d=" M 146.55 139.99 C 151.67 136.45 156.87 133.01 162.21 129.81 C 163.50 133.63 164.92 137.40 166.11 141.26 C 164.06 141.58 161.98 141.59 160.21 140.37 C 155.76 139.51 151.09 140.21 146.55 139.99 Z" />
<path fill="#3babec" d=" M 87.50 140.00 C 95.46 137.75 103.38 135.30 110.99 132.03 C 110.99 135.87 111.01 139.70 111.00 143.53 C 103.17 143.53 95.34 143.51 87.51 143.49 C 87.51 142.62 87.50 140.87 87.50 140.00 Z" />
<path fill="#0086d3" d=" M 160.21 140.37 C 161.98 141.59 164.06 141.58 166.11 141.26 C 169.18 150.52 172.59 159.70 175.40 169.04 L 175.04 169.60 C 170.09 172.28 164.95 174.75 160.66 178.46 C 150.52 178.55 140.37 178.52 130.23 178.46 C 130.27 170.82 130.27 163.17 130.26 155.53 C 140.26 155.48 150.26 155.54 160.26 155.49 C 160.23 150.45 160.33 145.41 160.21 140.37 Z" />
<path fill="#007fc8" d=" M 187.55 150.29 C 193.45 147.17 198.51 142.69 204.58 139.87 C 200.96 151.96 196.66 163.89 194.55 176.37 C 192.65 167.57 190.39 158.85 187.55 150.29 Z" />
<path fill="#0074b7" d=" M 231.58 149.53 C 235.36 147.92 239.34 146.85 243.32 145.86 C 243.17 155.32 241.58 164.71 238.81 173.74 L 238.67 173.76 C 227.97 174.14 218.63 179.99 208.64 183.16 C 211.80 173.72 215.00 164.30 218.26 154.90 L 218.91 154.74 C 223.45 153.87 227.34 151.22 231.58 149.53 Z" />
<path fill="#36a9eb" d=" M 40.17 147.80 C 42.19 147.48 44.20 147.17 46.22 146.85 C 46.33 152.66 47.12 158.42 48.23 164.12 C 46.32 164.54 44.41 164.97 42.49 165.39 L 42.22 165.45 C 41.19 159.61 40.49 153.72 40.17 147.80 Z" />
<path fill="#1b9ee9" d=" M 50.07 157.03 L 50.32 157.05 C 58.13 157.16 65.93 157.03 73.73 157.05 C 73.68 164.86 73.94 172.67 73.74 180.48 C 73.40 178.36 73.06 176.23 72.72 174.11 C 67.07 175.80 61.36 177.60 56.25 180.61 L 56.18 180.64 C 53.19 173.06 51.13 165.12 50.07 157.03 Z" />
<path fill="#1099e8" d=" M 87.53 157.05 C 95.38 157.05 103.24 156.98 111.10 157.00 C 111.06 157.44 110.96 158.31 110.92 158.75 C 103.07 161.52 95.61 165.36 87.51 167.37 C 87.48 163.93 87.52 160.49 87.53 157.05 Z" />
<path fill="#0090e2" d=" M 87.51 167.37 C 95.61 165.36 103.07 161.52 110.92 158.75 C 111.07 163.41 110.98 168.08 110.99 172.75 C 99.55 177.08 88.61 182.64 77.32 187.37 C 72.69 189.89 67.54 191.46 63.25 194.59 C 60.55 190.12 58.21 185.44 56.25 180.61 C 61.36 177.60 67.07 175.80 72.72 174.11 C 73.06 176.23 73.40 178.36 73.74 180.48 C 78.33 180.52 82.91 180.50 87.49 180.49 C 87.51 176.12 87.50 171.74 87.51 167.37 Z" />
<path fill="#006ba8" d=" M 244.90 160.78 C 246.37 159.65 248.21 159.62 249.99 159.62 C 248.38 170.22 245.20 180.58 240.49 190.22 C 238.95 189.68 237.42 189.13 235.89 188.59 C 240.27 179.85 243.29 170.42 244.90 160.78 Z" />
<path fill="#169be8" d=" M 42.49 165.39 C 44.41 164.97 46.32 164.54 48.23 164.12 C 49.24 169.44 50.82 174.63 52.72 179.70 C 51.18 181.29 49.69 182.93 48.28 184.63 L 48.23 184.70 C 45.75 178.45 43.55 172.04 42.49 165.39 Z" />
<path fill="#0077bc" d=" M 160.66 178.46 C 164.95 174.75 170.09 172.28 175.04 169.60 L 175.71 169.74 C 177.86 175.82 179.97 181.95 181.98 188.09 C 173.53 193.00 164.74 197.29 156.29 202.19 C 141.59 210.91 126.49 219.30 113.76 230.83 C 112.64 231.93 112.15 233.46 111.46 234.82 C 103.56 231.89 96.16 227.70 89.35 222.76 C 91.68 220.24 94.43 218.18 97.27 216.27 C 109.06 208.01 121.92 201.47 134.24 194.07 C 143.66 193.87 153.10 194.12 162.53 193.95 C 162.48 188.81 162.51 183.67 162.52 178.54 C 162.05 178.52 161.13 178.48 160.66 178.46 Z" />
<path fill="#008ad9" d=" M 77.32 187.37 C 88.61 182.64 99.55 177.08 110.99 172.75 C 111.01 176.51 111.00 180.28 111.00 184.04 C 105.32 187.20 99.23 189.47 93.47 192.46 C 86.02 196.98 77.79 200.07 70.59 205.05 C 67.93 201.71 65.50 198.21 63.25 194.59 C 67.54 191.46 72.69 189.89 77.32 187.37 Z" />
<path fill="#006ba8" d=" M 208.64 183.16 C 218.63 179.99 227.97 174.14 238.67 173.76 C 231.41 197.24 214.56 217.53 192.99 229.25 C 171.80 241.02 146.11 244.33 122.63 238.29 C 126.58 231.50 133.08 226.84 139.31 222.30 C 154.44 211.50 171.04 203.03 187.30 194.09 C 193.17 193.85 199.07 194.10 204.95 194.00 C 206.19 190.39 207.33 186.74 208.64 183.16 Z" />
<path fill="#008ddf" d=" M 48.28 184.63 C 49.69 182.93 51.18 181.29 52.72 179.70 C 56.00 188.19 60.29 196.32 65.74 203.62 C 64.35 204.98 62.96 206.33 61.57 207.69 C 56.19 200.60 51.72 192.84 48.28 184.63 Z" />
<path fill="#0082cc" d=" M 93.47 192.46 C 99.23 189.47 105.32 187.20 111.00 184.04 C 111.00 187.36 110.99 190.68 111.00 194.00 C 118.75 194.05 126.49 193.91 134.24 194.07 C 121.92 201.47 109.06 208.01 97.27 216.27 C 94.43 218.18 91.68 220.24 89.35 222.76 C 82.24 217.85 76.06 211.71 70.59 205.05 C 77.79 200.07 86.02 196.98 93.47 192.46 Z" />
<path fill="#0071b2" d=" M 156.29 202.19 C 164.74 197.29 173.53 193.00 181.98 188.09 C 182.63 190.07 183.34 192.02 184.07 193.97 C 184.88 194.00 186.49 194.06 187.30 194.09 C 171.04 203.03 154.44 211.50 139.31 222.30 C 133.08 226.84 126.58 231.50 122.63 238.29 C 118.80 237.50 115.13 236.11 111.46 234.82 C 112.15 233.46 112.64 231.93 113.76 230.83 C 126.49 219.30 141.59 210.91 156.29 202.19 Z" />
<path fill="#00639b" d=" M 184.61 236.54 C 206.77 227.48 225.41 210.13 235.89 188.59 C 237.42 189.13 238.95 189.68 240.49 190.22 C 229.16 213.51 208.97 232.25 184.93 241.87 C 164.07 250.14 140.50 251.87 118.81 245.87 C 119.94 244.32 121.07 242.77 122.21 241.23 C 142.80 246.56 165.02 244.70 184.61 236.54 Z" />
<path fill="#0083cf" d=" M 65.74 203.62 C 68.86 207.85 72.36 211.78 75.98 215.58 C 74.45 216.68 72.92 217.79 71.40 218.90 C 67.87 215.39 64.59 211.64 61.57 207.69 C 62.96 206.33 64.35 204.98 65.74 203.62 Z" />
<path fill="#007bc2" d=" M 71.40 218.90 C 72.92 217.79 74.45 216.68 75.98 215.58 C 81.02 220.34 86.48 224.64 92.30 228.42 C 90.72 229.61 89.15 230.81 87.58 232.01 C 81.75 228.21 76.38 223.76 71.40 218.90 Z" />
<path fill="#0070b0" d=" M 87.58 232.01 C 89.15 230.81 90.72 229.61 92.30 228.42 C 101.47 234.32 111.61 238.68 122.21 241.23 C 121.07 242.77 119.94 244.32 118.81 245.87 C 107.64 243.26 97.20 238.18 87.58 232.01 Z" />
</svg>
